<?xml version="1.0" encoding="utf-8"?>
<!-- Generator: Adobe Illustrator 16.0.0, SVG Export Plug-In . SVG Version: 6.00 Build 0)  -->
<!DOCTYPE svg PUBLIC "-//W3C//DTD SVG 1.1//EN" "http://www.w3.org/Graphics/SVG/1.1/DTD/svg11.dtd">
<svg version="1.1" id="Layer_1" xmlns="http://www.w3.org/2000/svg" xmlns:xlink="http://www.w3.org/1999/xlink" x="0px" y="0px"
	 width="16px" height="13px" viewBox="0 0 16 13" enable-background="new 0 0 16 13" xml:space="preserve">
<g>
	<g>
		<g>
			<path fill="none" stroke="#606060" stroke-linecap="round" d="M0.557,12.5c-0.031,0-0.057-0.021-0.057-0.051V7.791
				c0-0.029,0.025-0.053,0.057-0.053h4.537c0.031,0,0.059,0.023,0.059,0.053v1.371h5.695V7.791c0-0.029,0.027-0.053,0.059-0.053
				h4.537c0.031,0,0.057,0.023,0.057,0.053v4.658c0,0.029-0.025,0.051-0.057,0.051H0.557z"/>
			<path fill="none" stroke="#606060" stroke-linecap="round" d="M2.483,6.439V0.552C2.483,0.523,2.51,0.5,2.542,0.5h10.916
				c0.032,0,0.056,0.023,0.056,0.052v5.888"/>
		</g>
	</g>
	<line fill="none" stroke="#606060" stroke-linecap="round" x1="5.448" y1="2.759" x2="10.552" y2="2.759"/>
	<line fill="none" stroke="#606060" stroke-linecap="round" x1="5.448" y1="4.821" x2="10.552" y2="4.821"/>
</g>
</svg>
